<svg xmlns="http://www.w3.org/2000/svg" xmlns:xlink="http://www.w3.org/1999/xlink" width="1920" zoomAndPan="magnify" viewBox="0 0 1440 809.999993" height="1080" preserveAspectRatio="xMidYMid meet" version="1.0"><defs><clipPath id="b98dcd320e"><path d="M 365 45.050781 L 1078 45.050781 L 1078 765 L 365 765 Z M 365 45.050781 " clip-rule="nonzero"/></clipPath></defs><g clip-path="url(#b98dcd320e)"><path fill="#ffffff" d="M 524.15625 242.296875 C 524.160156 239.078125 524.242188 235.855469 524.402344 232.640625 C 524.566406 229.421875 524.804688 226.210938 525.125 223.003906 C 525.441406 219.796875 525.839844 216.601562 526.316406 213.414062 C 526.789062 210.230469 527.34375 207.054688 527.972656 203.894531 C 528.605469 200.738281 529.3125 197.59375 530.097656 194.46875 C 530.882812 191.34375 531.742188 188.242188 532.679688 185.160156 C 533.617188 182.078125 534.628906 179.019531 535.71875 175.988281 C 536.804688 172.953125 537.964844 169.949219 539.199219 166.972656 C 540.433594 163.996094 541.738281 161.054688 543.117188 158.140625 C 544.496094 155.230469 545.945312 152.351562 547.464844 149.511719 C 548.984375 146.671875 550.574219 143.871094 552.230469 141.105469 C 553.886719 138.34375 555.613281 135.625 557.402344 132.945312 C 559.191406 130.265625 561.046875 127.632812 562.96875 125.046875 C 564.886719 122.457031 566.867188 119.917969 568.914062 117.429688 C 570.957031 114.9375 573.0625 112.5 575.222656 110.113281 C 577.386719 107.726562 579.609375 105.394531 581.886719 103.113281 C 584.164062 100.835938 586.496094 98.617188 588.882812 96.453125 C 591.269531 94.289062 593.710938 92.183594 596.199219 90.140625 C 598.6875 88.09375 601.226562 86.113281 603.816406 84.191406 C 606.402344 82.273438 609.035156 80.417969 611.714844 78.625 C 614.390625 76.835938 617.113281 75.109375 619.875 73.453125 C 622.636719 71.796875 625.4375 70.207031 628.277344 68.6875 C 631.121094 67.167969 633.996094 65.71875 636.90625 64.339844 C 639.820312 62.960938 642.761719 61.652344 645.738281 60.417969 C 648.714844 59.183594 651.71875 58.023438 654.75 56.933594 C 657.785156 55.847656 660.839844 54.835938 663.925781 53.898438 C 667.007812 52.960938 670.109375 52.097656 673.234375 51.3125 C 676.359375 50.527344 679.5 49.820312 682.660156 49.1875 C 685.820312 48.554688 688.992188 48.003906 692.179688 47.527344 C 695.363281 47.050781 698.5625 46.652344 701.765625 46.332031 C 704.972656 46.015625 708.183594 45.773438 711.402344 45.613281 C 714.621094 45.449219 717.839844 45.367188 721.0625 45.363281 C 981.320312 54.570312 981.832031 429.199219 721.730469 439.199219 C 718.5 439.207031 715.273438 439.136719 712.046875 438.984375 C 708.824219 438.832031 705.605469 438.605469 702.390625 438.296875 C 699.175781 437.984375 695.972656 437.597656 692.777344 437.132812 C 689.582031 436.664062 686.402344 436.121094 683.234375 435.496094 C 680.066406 434.875 676.914062 434.175781 673.78125 433.398438 C 670.648438 432.621094 667.535156 431.765625 664.445312 430.835938 C 661.351562 429.902344 658.285156 428.898438 655.242188 427.816406 C 652.203125 426.734375 649.1875 425.578125 646.203125 424.351562 C 643.21875 423.121094 640.265625 421.820312 637.34375 420.445312 C 634.421875 419.070312 631.535156 417.625 628.6875 416.109375 C 625.835938 414.59375 623.023438 413.007812 620.25 411.351562 C 617.480469 409.699219 614.75 407.976562 612.0625 406.1875 C 609.375 404.398438 606.730469 402.546875 604.132812 400.625 C 601.539062 398.707031 598.988281 396.726562 596.492188 394.683594 C 593.992188 392.640625 591.542969 390.535156 589.148438 388.371094 C 586.75 386.207031 584.410156 383.988281 582.125 381.707031 C 579.835938 379.429688 577.605469 377.09375 575.433594 374.707031 C 573.261719 372.316406 571.152344 369.875 569.097656 367.382812 C 567.046875 364.890625 565.058594 362.351562 563.128906 359.761719 C 561.203125 357.171875 559.339844 354.535156 557.542969 351.851562 C 555.742188 349.171875 554.011719 346.445312 552.347656 343.679688 C 550.683594 340.914062 549.089844 338.109375 547.5625 335.261719 C 546.039062 332.417969 544.582031 329.535156 543.199219 326.621094 C 541.8125 323.703125 540.503906 320.753906 539.261719 317.773438 C 538.023438 314.792969 536.859375 311.78125 535.765625 308.742188 C 534.675781 305.707031 533.65625 302.640625 532.714844 299.554688 C 531.777344 296.464844 530.910156 293.355469 530.121094 290.226562 C 529.335938 287.09375 528.625 283.945312 527.988281 280.78125 C 527.355469 277.613281 526.800781 274.433594 526.324219 271.242188 C 525.847656 268.050781 525.449219 264.847656 525.128906 261.632812 C 524.808594 258.421875 524.566406 255.203125 524.40625 251.976562 C 524.242188 248.753906 524.160156 245.527344 524.15625 242.296875 Z M 920.359375 439.292969 C 919.054688 438.492188 917.699219 437.789062 916.292969 437.183594 C 914.890625 436.578125 913.449219 436.078125 911.96875 435.679688 C 910.492188 435.285156 908.996094 434.996094 907.476562 434.8125 C 905.957031 434.632812 904.429688 434.558594 902.902344 434.597656 C 901.371094 434.636719 899.851562 434.78125 898.34375 435.039062 C 896.835938 435.292969 895.355469 435.65625 893.898438 436.128906 C 892.441406 436.597656 891.027344 437.167969 889.652344 437.84375 C 888.28125 438.515625 886.960938 439.285156 885.699219 440.148438 C 882.765625 442.527344 879.785156 444.84375 876.753906 447.09375 C 873.722656 449.347656 870.644531 451.53125 867.519531 453.652344 C 864.394531 455.773438 861.226562 457.824219 858.011719 459.804688 C 854.800781 461.789062 851.546875 463.699219 848.25 465.542969 C 844.953125 467.386719 841.621094 469.15625 838.246094 470.855469 C 834.875 472.554688 831.46875 474.179688 828.027344 475.734375 C 824.585938 477.285156 821.109375 478.761719 817.605469 480.164062 C 814.097656 481.566406 810.566406 482.894531 807 484.144531 C 803.4375 485.394531 799.851562 486.566406 796.238281 487.664062 C 792.625 488.757812 788.988281 489.777344 785.332031 490.714844 C 781.675781 491.65625 778 492.515625 774.304688 493.296875 C 770.609375 494.078125 766.902344 494.777344 763.175781 495.398438 C 759.453125 496.019531 755.714844 496.5625 751.96875 497.019531 C 748.21875 497.480469 744.464844 497.859375 740.699219 498.160156 C 736.9375 498.457031 733.167969 498.675781 729.394531 498.8125 C 725.621094 498.945312 721.84375 499 718.070312 498.976562 C 714.292969 498.949219 710.519531 498.839844 706.75 498.652344 C 702.976562 498.460938 699.214844 498.191406 695.453125 497.839844 C 691.695312 497.488281 687.945312 497.058594 684.203125 496.546875 C 680.460938 496.03125 676.734375 495.441406 673.019531 494.765625 C 669.304688 494.09375 665.605469 493.339844 661.921875 492.507812 C 658.238281 491.675781 654.574219 490.761719 650.929688 489.773438 C 647.289062 488.78125 643.667969 487.714844 640.070312 486.566406 C 636.472656 485.421875 632.898438 484.199219 629.355469 482.898438 C 625.808594 481.597656 622.292969 480.222656 618.808594 478.769531 C 615.324219 477.316406 611.871094 475.792969 608.449219 474.191406 C 605.03125 472.589844 601.648438 470.917969 598.300781 469.171875 C 594.949219 467.425781 591.640625 465.609375 588.371094 463.71875 C 585.101562 461.832031 581.875 459.871094 578.691406 457.84375 C 575.503906 455.816406 572.363281 453.722656 569.269531 451.558594 C 566.175781 449.394531 563.128906 447.167969 560.128906 444.871094 C 557.128906 442.578125 554.183594 440.21875 551.285156 437.800781 C 549.097656 436.792969 546.824219 436.066406 544.460938 435.613281 C 542.097656 435.160156 539.710938 434.996094 537.308594 435.125 C 534.90625 435.25 532.554688 435.660156 530.25 436.359375 C 527.945312 437.058594 525.761719 438.019531 523.691406 439.25 C 517.640625 443.273438 511.71875 447.480469 505.925781 451.871094 C 500.132812 456.261719 494.484375 460.824219 488.972656 465.5625 C 483.460938 470.300781 478.101562 475.207031 472.890625 480.273438 C 467.683594 485.34375 462.636719 490.566406 457.75 495.945312 C 452.859375 501.324219 448.144531 506.851562 443.597656 512.519531 C 439.050781 518.191406 434.683594 523.996094 430.496094 529.933594 C 426.304688 535.875 422.304688 541.9375 418.488281 548.121094 C 414.671875 554.308594 411.050781 560.605469 407.625 567.015625 C 404.195312 573.421875 400.96875 579.929688 397.945312 586.539062 C 394.917969 593.148438 392.097656 599.839844 389.484375 606.621094 C 386.871094 613.40625 384.46875 620.261719 382.277344 627.191406 C 380.082031 634.121094 378.109375 641.109375 376.347656 648.160156 C 374.585938 655.210938 373.042969 662.3125 371.722656 669.457031 C 370.398438 676.605469 369.296875 683.785156 368.414062 691 C 367.535156 698.210938 366.875 705.445312 366.441406 712.703125 C 366.003906 719.957031 365.792969 727.21875 365.804688 734.484375 C 365.804688 735.476562 365.855469 736.464844 365.949219 737.453125 C 366.046875 738.4375 366.191406 739.417969 366.382812 740.390625 C 366.578125 741.359375 366.816406 742.320312 367.105469 743.269531 C 367.390625 744.21875 367.726562 745.148438 368.105469 746.066406 C 368.484375 746.980469 368.90625 747.875 369.375 748.75 C 369.839844 749.625 370.347656 750.472656 370.898438 751.296875 C 371.449219 752.121094 372.039062 752.914062 372.667969 753.683594 C 373.296875 754.449219 373.960938 755.179688 374.660156 755.882812 C 375.363281 756.582031 376.097656 757.246094 376.863281 757.875 C 377.628906 758.503906 378.421875 759.09375 379.246094 759.644531 C 380.070312 760.195312 380.921875 760.703125 381.792969 761.171875 C 382.667969 761.636719 383.5625 762.0625 384.480469 762.441406 C 385.394531 762.820312 386.324219 763.152344 387.273438 763.4375 C 388.222656 763.726562 389.183594 763.964844 390.15625 764.160156 C 391.128906 764.351562 392.105469 764.496094 393.09375 764.59375 C 394.078125 764.691406 395.066406 764.738281 396.058594 764.738281 L 1047.070312 764.738281 C 1048.058594 764.738281 1049.050781 764.691406 1050.035156 764.59375 C 1051.019531 764.496094 1052 764.351562 1052.972656 764.160156 C 1053.945312 763.964844 1054.90625 763.726562 1055.851562 763.4375 C 1056.800781 763.152344 1057.734375 762.820312 1058.648438 762.441406 C 1059.566406 762.0625 1060.460938 761.636719 1061.332031 761.171875 C 1062.207031 760.703125 1063.054688 760.195312 1063.878906 759.644531 C 1064.703125 759.09375 1065.5 758.503906 1066.265625 757.875 C 1067.03125 757.246094 1067.765625 756.582031 1068.464844 755.882812 C 1069.167969 755.179688 1069.832031 754.449219 1070.460938 753.683594 C 1071.089844 752.914062 1071.679688 752.121094 1072.226562 751.296875 C 1072.777344 750.472656 1073.289062 749.625 1073.753906 748.75 C 1074.222656 747.875 1074.644531 746.980469 1075.023438 746.066406 C 1075.402344 745.148438 1075.734375 744.21875 1076.023438 743.269531 C 1076.308594 742.320312 1076.550781 741.359375 1076.742188 740.390625 C 1076.9375 739.417969 1077.082031 738.4375 1077.175781 737.453125 C 1077.273438 736.464844 1077.320312 735.476562 1077.320312 734.484375 C 1077.316406 727.234375 1077.089844 719.988281 1076.640625 712.75 C 1076.195312 705.511719 1075.527344 698.296875 1074.640625 691.097656 C 1073.753906 683.902344 1072.644531 676.738281 1071.320312 669.609375 C 1069.996094 662.476562 1068.457031 655.394531 1066.699219 648.359375 C 1064.941406 641.324219 1062.972656 634.347656 1060.789062 627.433594 C 1058.605469 620.515625 1056.214844 613.675781 1053.613281 606.90625 C 1051.015625 600.136719 1048.210938 593.453125 1045.203125 586.851562 C 1042.195312 580.253906 1038.988281 573.753906 1035.582031 567.351562 C 1032.179688 560.949219 1028.582031 554.65625 1024.792969 548.472656 C 1021.003906 542.289062 1017.03125 536.226562 1012.875 530.285156 C 1008.714844 524.34375 1004.378906 518.535156 999.867188 512.859375 C 995.355469 507.183594 990.671875 501.648438 985.820312 496.257812 C 980.972656 490.867188 975.960938 485.628906 970.789062 480.542969 C 965.621094 475.460938 960.300781 470.535156 954.828125 465.777344 C 949.359375 461.015625 943.75 456.425781 938 452.007812 C 932.246094 447.589844 926.367188 443.351562 920.359375 439.292969 Z M 920.359375 439.292969 " fill-opacity="1" fill-rule="nonzero"/></g></svg>