<svg xmlns="http://www.w3.org/2000/svg" xmlns:xlink="http://www.w3.org/1999/xlink" width="1920" zoomAndPan="magnify" viewBox="0 0 1440 809.999993" height="1080" preserveAspectRatio="xMidYMid meet" version="1.0"><defs><clipPath id="3b2e1767c1"><path d="M 424.226562 109.226562 L 1015.976562 109.226562 L 1015.976562 700.976562 L 424.226562 700.976562 Z M 424.226562 109.226562 " clip-rule="nonzero"/></clipPath></defs><g clip-path="url(#3b2e1767c1)"><path fill="#ffffff" d="M 720.101562 109.226562 C 557.371094 109.226562 424.226562 242.371094 424.226562 405.101562 C 424.226562 567.832031 557.371094 700.976562 720.101562 700.976562 C 882.832031 700.976562 1015.976562 567.832031 1015.976562 405.101562 C 1015.976562 242.371094 882.832031 109.226562 720.101562 109.226562 Z M 838.449219 434.6875 L 749.6875 434.6875 L 749.6875 523.449219 C 749.6875 541.203125 737.855469 553.039062 720.101562 553.039062 C 702.347656 553.039062 690.511719 541.203125 690.511719 523.449219 L 690.511719 434.6875 L 601.75 434.6875 C 584 434.6875 572.164062 422.855469 572.164062 405.101562 C 572.164062 387.347656 584 375.511719 601.75 375.511719 L 690.511719 375.511719 L 690.511719 286.75 C 690.511719 269 702.347656 257.164062 720.101562 257.164062 C 737.855469 257.164062 749.6875 269 749.6875 286.75 L 749.6875 375.511719 L 838.449219 375.511719 C 856.203125 375.511719 868.039062 387.347656 868.039062 405.101562 C 868.039062 422.855469 856.203125 434.6875 838.449219 434.6875 Z M 838.449219 434.6875 " fill-opacity="1" fill-rule="nonzero"/></g></svg>