<svg xmlns="http://www.w3.org/2000/svg" xmlns:xlink="http://www.w3.org/1999/xlink" width="1920" zoomAndPan="magnify" viewBox="0 0 1440 809.999993" height="1080" preserveAspectRatio="xMidYMid meet" version="1.0"><defs><clipPath id="3c4c019cc4"><path d="M 426.175781 23.40625 L 1014.175781 23.40625 L 1014.175781 786.90625 L 426.175781 786.90625 Z M 426.175781 23.40625 " clip-rule="nonzero"/></clipPath></defs><g clip-path="url(#3c4c019cc4)"><path fill="#ffffff" d="M 981.246094 107.273438 L 855.648438 107.273438 L 789.441406 41.429688 C 788.382812 40.371094 787.324219 39.546875 786.265625 38.726562 C 775.800781 30.023438 759.453125 23.792969 746.515625 23.792969 L 459.101562 23.792969 C 440.992188 23.792969 426.175781 38.605469 426.175781 56.714844 L 426.175781 670.121094 C 426.175781 688.226562 440.992188 703.042969 459.101562 703.042969 L 496.734375 703.042969 L 496.734375 753.601562 C 496.734375 771.707031 511.550781 786.523438 529.664062 786.523438 L 981.246094 786.523438 C 999.355469 786.523438 1014.175781 771.707031 1014.175781 753.601562 L 1014.175781 140.078125 C 1014.175781 121.96875 999.355469 107.273438 981.246094 107.273438 Z M 779.445312 69.179688 L 897.75 186.636719 L 785.558594 186.636719 C 782.148438 186.636719 779.328125 183.816406 779.328125 180.40625 L 779.328125 69.179688 Z M 452.871094 670.121094 L 452.871094 56.714844 C 452.871094 53.304688 455.691406 50.484375 459.101562 50.484375 L 746.515625 50.484375 C 748.515625 50.484375 750.75 50.835938 753.101562 51.421875 C 752.867188 53.070312 752.75 54.832031 752.75 56.597656 L 752.75 180.289062 C 752.75 198.394531 767.566406 213.210938 785.675781 213.210938 L 910.6875 213.210938 C 912.566406 213.210938 914.332031 213.09375 915.859375 212.859375 C 916.449219 215.210938 916.800781 217.445312 916.800781 219.441406 L 916.800781 670.003906 C 916.800781 673.414062 913.980469 676.234375 910.570312 676.234375 L 459.101562 676.234375 C 455.691406 676.351562 452.871094 673.53125 452.871094 670.121094 Z M 987.480469 753.601562 C 987.480469 757.011719 984.65625 759.832031 981.246094 759.832031 L 529.664062 759.832031 C 526.25 759.832031 523.429688 757.011719 523.429688 753.601562 L 523.429688 703.042969 L 910.6875 703.042969 C 928.796875 703.042969 943.613281 688.226562 943.613281 670.121094 L 943.613281 219.5625 C 943.613281 206.625 937.382812 190.519531 928.679688 180.054688 C 927.855469 178.996094 926.914062 177.9375 925.738281 176.761719 L 882.578125 133.964844 L 981.246094 133.964844 C 984.65625 133.964844 987.480469 136.785156 987.480469 140.195312 Z M 842.007812 313.035156 L 527.78125 313.035156 C 521.429688 313.035156 516.375 307.863281 516.375 301.628906 C 516.375 295.398438 521.546875 290.226562 527.78125 290.226562 L 842.007812 290.226562 C 848.359375 290.226562 853.414062 295.398438 853.414062 301.628906 C 853.414062 307.863281 848.359375 313.035156 842.007812 313.035156 Z M 842.007812 396.515625 L 527.78125 396.515625 C 521.429688 396.515625 516.375 391.34375 516.375 385.109375 C 516.375 378.878906 521.546875 373.707031 527.78125 373.707031 L 842.007812 373.707031 C 848.359375 373.707031 853.414062 378.878906 853.414062 385.109375 C 853.414062 391.34375 848.359375 396.515625 842.007812 396.515625 Z M 842.007812 479.878906 L 527.78125 479.878906 C 521.429688 479.878906 516.375 474.707031 516.375 468.472656 C 516.375 462.242188 521.546875 457.070312 527.78125 457.070312 L 842.007812 457.070312 C 848.359375 457.070312 853.414062 462.242188 853.414062 468.472656 C 853.414062 474.707031 848.359375 479.878906 842.007812 479.878906 Z M 662.550781 563.359375 L 527.78125 563.359375 C 521.429688 563.359375 516.375 558.1875 516.375 551.953125 C 516.375 545.605469 521.546875 540.550781 527.78125 540.550781 L 662.550781 540.550781 C 668.902344 540.550781 673.957031 545.722656 673.957031 551.953125 C 673.957031 558.1875 668.902344 563.359375 662.550781 563.359375 Z M 662.550781 563.359375 " fill-opacity="1" fill-rule="nonzero"/></g></svg>