<svg xmlns="http://www.w3.org/2000/svg" xmlns:xlink="http://www.w3.org/1999/xlink" width="1920" zoomAndPan="magnify" viewBox="0 0 1440 809.999993" height="1080" preserveAspectRatio="xMidYMid meet" version="1.0"><path fill="#ffffff" d="M 587.082031 545.351562 C 584.367188 545.351562 581.761719 544.265625 579.808594 542.308594 C 577.09375 539.488281 576.117188 535.46875 577.3125 531.671875 L 634.199219 363.714844 C 635.285156 360.347656 638.109375 357.742188 641.582031 356.984375 C 645.058594 356.113281 648.75 357.199219 651.246094 359.695312 L 762.3125 471.089844 C 764.808594 473.585938 765.894531 477.277344 765.027344 480.75 C 764.15625 484.226562 761.660156 487.046875 758.296875 488.132812 L 590.230469 544.808594 C 589.144531 545.132812 588.058594 545.351562 586.972656 545.351562 Z M 648.53125 386.078125 L 603.585938 518.640625 L 736.148438 474.019531 L 648.53125 386.1875 Z M 648.53125 386.078125 " fill-opacity="1" fill-rule="nonzero"/><path fill="#ffffff" d="M 755.148438 488.675781 C 752.433594 488.675781 749.828125 487.589844 747.871094 485.636719 L 636.804688 374.246094 C 632.789062 370.226562 632.789062 363.714844 636.804688 359.695312 L 897.699219 99.023438 C 908.664062 87.839844 923.429688 81.652344 939.28125 81.652344 C 955.132812 81.652344 969.894531 87.839844 980.96875 99.023438 L 1023.3125 141.148438 C 1034.605469 152.4375 1040.683594 167.421875 1040.683594 183.273438 C 1040.683594 199.015625 1034.386719 213.78125 1023.3125 224.746094 L 762.421875 485.636719 C 760.464844 487.589844 757.859375 488.675781 755.148438 488.675781 Z M 658.628906 366.972656 L 755.148438 463.816406 L 1008.871094 210.195312 C 1016.148438 203.03125 1020.164062 193.476562 1020.164062 183.273438 C 1020.164062 172.847656 1016.148438 163.1875 1008.871094 155.804688 L 966.421875 113.679688 C 951.984375 99.023438 926.6875 99.132812 912.355469 113.679688 L 658.628906 367.078125 Z M 658.628906 366.972656 " fill-opacity="1" fill-rule="nonzero"/><path fill="#ffffff" d="M 985.640625 258.183594 C 982.925781 258.183594 980.320312 257.097656 978.363281 255.144531 L 867.296875 143.753906 C 865.34375 141.796875 864.257812 139.191406 864.257812 136.480469 C 864.257812 133.765625 865.34375 131.160156 867.296875 129.203125 L 897.804688 99.023438 C 908.773438 87.949219 923.539062 81.761719 939.386719 81.761719 C 955.238281 81.761719 970.003906 87.949219 981.078125 99.132812 L 1023.421875 141.253906 C 1046.4375 164.273438 1046.4375 201.730469 1023.421875 224.746094 L 992.914062 255.253906 C 990.957031 257.207031 988.351562 258.292969 985.640625 258.292969 Z M 889.121094 136.480469 L 985.640625 233.214844 L 1008.765625 210.089844 C 1023.746094 195.105469 1023.746094 170.679688 1008.765625 155.695312 L 966.3125 113.570312 C 951.875 98.914062 926.578125 99.023438 912.246094 113.570312 L 889.011719 136.585938 Z M 889.121094 136.480469 " fill-opacity="1" fill-rule="nonzero"/><path fill="#ffffff" d="M 880.109375 732.738281 L 461.902344 732.738281 C 424.445312 732.738281 394.046875 702.449219 394.046875 665.210938 L 394.046875 246.675781 C 394.046875 209.4375 424.445312 179.144531 461.902344 179.144531 L 751.457031 179.144531 C 757.101562 179.144531 761.769531 183.816406 761.769531 189.460938 C 761.769531 195.105469 757.210938 199.773438 751.457031 199.773438 L 461.902344 199.773438 C 435.84375 199.773438 414.675781 220.835938 414.675781 246.675781 L 414.675781 665.210938 C 414.675781 691.050781 435.84375 712.113281 461.902344 712.113281 L 880.109375 712.113281 C 906.167969 712.113281 927.335938 691.050781 927.335938 665.210938 L 927.335938 368.273438 C 927.335938 362.628906 931.898438 357.960938 937.652344 357.960938 C 943.40625 357.960938 947.964844 362.628906 947.964844 368.273438 L 947.964844 665.210938 C 947.964844 702.449219 917.566406 732.738281 880.109375 732.738281 Z M 880.109375 732.738281 " fill-opacity="1" fill-rule="nonzero"/></svg>