<svg xmlns="http://www.w3.org/2000/svg" xmlns:xlink="http://www.w3.org/1999/xlink" width="1920" zoomAndPan="magnify" viewBox="0 0 1440 809.999993" height="1080" preserveAspectRatio="xMidYMid meet" version="1.0"><defs><clipPath id="9976223fac"><path d="M 501.007812 75 L 939 75 L 939 732 L 501.007812 732 Z M 501.007812 75 " clip-rule="nonzero"/></clipPath></defs><g clip-path="url(#9976223fac)"><path fill="#ffffff" d="M 938.761719 206.683594 C 938.761719 171.832031 924.910156 138.417969 900.261719 113.777344 C 875.628906 89.136719 842.195312 75.300781 807.347656 75.300781 C 752.75 75.300781 686.894531 75.300781 632.296875 75.300781 C 597.433594 75.300781 564.015625 89.136719 539.371094 113.777344 C 514.722656 138.417969 500.882812 171.832031 500.882812 206.683594 C 500.882812 382.949219 500.882812 710.085938 500.882812 710.085938 C 500.882812 718.4375 505.648438 726.070312 513.15625 729.738281 C 520.667969 733.421875 529.617188 732.488281 536.214844 727.351562 L 719.816406 584.589844 C 719.816406 584.589844 903.425781 727.351562 903.425781 727.351562 C 910.023438 732.488281 918.964844 733.421875 926.488281 729.738281 C 933.996094 726.070312 938.761719 718.4375 938.761719 710.085938 Z M 938.761719 206.683594 " fill-opacity="1" fill-rule="evenodd"/></g></svg>